<svg xmlns:xlink="http://www.w3.org/1999/xlink" id="wordpress" xmlns="http://www.w3.org/2000/svg" width="1024" height="1024" viewBox="0 0 1024 1024" class="w-12 h-12 sm:w-16 sm:h-16 inline-block"><defs><linearGradient id="bgGradient-wordpress" x1="15%" y1="15%" x2="85%" y2="85%" gradientUnits="userSpaceOnUse"><stop offset="0%" style="stop-color: rgb(255, 147, 15); stop-opacity: 1;"></stop><stop offset="100%" style="stop-color: rgb(255, 249, 91); stop-opacity: 1;"></stop></linearGradient><linearGradient id="bgGradient-wordpress" x1="15%" y1="15%" x2="85%" y2="85%" gradientUnits="userSpaceOnUse"><stop offset="0%" style="stop-color: rgb(255, 147, 15); stop-opacity: 1;"></stop><stop offset="100%" style="stop-color: rgb(255, 249, 91); stop-opacity: 1;"></stop></linearGradient></defs><path fill="url(&quot;#bgGradient-wordpress&quot;)" d="M844,1024H180C80.589,1024,0,943.411,0,844l0-664C0,80.589,80.589,0,180,0l664,0c99.411,0,180,80.589,180,180v664C1024,943.411,943.411,1024,844,1024z"></path><svg viewBox="0 0 24 24" width="610" aria-hidden="true" focusable="false" fill="#F4F4F4" xmlns="http://www.w3.org/2000/svg" filter="none" stroke="#000000" stroke-width="0px" x="207" class="StyledIconBase-ea9ulj-0 jZGNBW" stroke-opacity="0"><path d="M19.891 7.788a8.966 8.966 0 011.099 4.313 8.986 8.986 0 01-4.47 7.771l2.746-7.939c.513-1.282.684-2.309.684-3.219a7.165 7.165 0 00-.059-.926m-6.651.087a14.14 14.14 0 001.026-.088c.485-.063.428-.775-.056-.749 0 0-1.463.112-2.4.112-.887 0-2.375-.125-2.375-.125-.487-.024-.55.713-.061.738 0 0 .449.052.938.075l1.399 3.838-1.975 5.899-3.274-9.724c.541-.026 1.028-.083 1.028-.083.487-.063.43-.775-.055-.747 0 0-1.455.115-2.395.115-.167 0-.365-.007-.575-.013C6.093 4.726 8.862 3.113 12 3.113c2.341 0 4.471.894 6.071 2.36-.038-.002-.076-.008-.117-.008-.883 0-1.51.77-1.51 1.596 0 .741.427 1.369.883 2.108.343.601.742 1.37.742 2.481 0 .763-.295 1.662-.685 2.899l-.896 2.987-3.25-9.675.002.014zM12 21.087a8.983 8.983 0 01-2.54-.364l2.697-7.838 2.763 7.572c.021.044.042.085.065.124a9.016 9.016 0 01-2.985.508m-8.99-8.988a8.94 8.94 0 01.778-3.658l4.287 11.749a8.993 8.993 0 01-5.065-8.091m8.99-10c-5.513 0-10 4.487-10 10s4.487 10 10 10 10-4.487 10-10-4.487-10-10-10" stroke="#000000" fill="#F4F4F4" stroke-width="0px" stroke-opacity="0"></path></svg></svg>